# xmcd CD database file
#
# Track frame offsets:
#	150
#	17962
#	34575
#	53475
#	78037
#	101625
#	121450
#	138787
#	169237
#	180702
#	203532
#
# Disc length: 3106 seconds
#
# Revision: 7
# Processed by: cddbd v1.5.2PL0 Copyright (c) Steve Scherf et al.
# Submitted via: CDex 1.70beta3
#
DISCID=830c200b
DTITLE=Janis Joplin - I Got Dem Ol' Kozmic Blues Again Mama!
DYEAR=1969
DGENRE=Rock
TTITLE0=Try (Just a Little Bit Harder)
TTITLE1=Maybe
TTITLE2=One Good Man
TTITLE3=As Good As You've Been to This World
TTITLE4=To Love Somebody
TTITLE5=Kozmic Blues
TTITLE6=Little Girl Blue
TTITLE7=Work Me, Lord
TTITLE8=Dear Landlord (Session Outtake)
TTITLE9=Summertime (Live At Woodstock)
TTITLE10=Piece of My Heart (Live At Woodstock)
EXTD=YEAR: 1969
EXTT0=
EXTT1=
EXTT2=
EXTT3=
EXTT4=
EXTT5=
EXTT6=
EXTT7=
EXTT8=
EXTT9=
EXTT10=
PLAYORDER=
